<?xml version="1.0" encoding="utf-8"?>
<!-- Generator: Adobe Illustrator 16.0.0, SVG Export Plug-In . SVG Version: 6.00 Build 0)  -->
<!DOCTYPE svg PUBLIC "-//W3C//DTD SVG 1.1//EN" "http://www.w3.org/Graphics/SVG/1.1/DTD/svg11.dtd">
<svg version="1.1" xmlns="http://www.w3.org/2000/svg" xmlns:xlink="http://www.w3.org/1999/xlink" x="0px" y="0px" width="940px"
	 height="940px" viewBox="0 0 940 940" enable-background="new 0 0 940 940" xml:space="preserve">
<g id="Layer_1">
	<circle fill="#001420" stroke="#B18932" stroke-width="6" stroke-miterlimit="10" cx="469.575" cy="471" r="459.415"/>
	<circle fill="none" stroke="#B18932" stroke-width="6" stroke-miterlimit="10" cx="469.575" cy="471" r="383.805"/>
	<circle fill="none" stroke="#DAC863" stroke-width="6.1131" stroke-miterlimit="10" cx="469.575" cy="471.001" r="362.463"/>
</g>
<g id="Layer_2">
	<rect x="69.707" y="376.44" fill="#001420" width="800.586" height="187.121"/>
</g>
<g id="Layer_3">
	<g>
		<g>
			<linearGradient id="SVGID_1_" gradientUnits="userSpaceOnUse" x1="75.7949" y1="470.6724" x2="863.3555" y2="470.6724">
				<stop  offset="0" style="stop-color:#D8C661"/>
				<stop  offset="1" style="stop-color:#B08831"/>
			</linearGradient>
			<path fill="url(#SVGID_1_)" d="M151.095,431.13v5.23c0,15.064-5.035,24.479-16.249,29.292v0.418
				c13.503,4.812,18.768,15.69,18.768,31.173v11.928c0,22.596-13.047,34.73-38.223,34.73H75.795V397.445h37.993
				C139.879,397.445,151.095,408.534,151.095,431.13z M100.972,418.367v38.707h9.841c9.384,0,15.105-3.767,15.105-15.482v-8.16
				c0-10.461-3.891-15.064-12.815-15.064H100.972z M100.972,477.995v44.982h14.419c8.468,0,13.047-3.555,13.047-14.434v-12.766
				c0-13.6-4.808-17.783-16.251-17.783H100.972z"/>
			<linearGradient id="SVGID_2_" gradientUnits="userSpaceOnUse" x1="75.7949" y1="470.6724" x2="863.3555" y2="470.6724">
				<stop  offset="0" style="stop-color:#D8C661"/>
				<stop  offset="1" style="stop-color:#B08831"/>
			</linearGradient>
			<path fill="url(#SVGID_2_)" d="M250.198,543.901h-25.405l-4.349-26.57h-30.899l-4.348,26.57h-23.116l25.634-146.457h36.85
				L250.198,543.901z M192.749,497.452h24.262l-11.901-74.063h-0.458L192.749,497.452z"/>
			<linearGradient id="SVGID_3_" gradientUnits="userSpaceOnUse" x1="75.7949" y1="470.6724" x2="863.3555" y2="470.6724">
				<stop  offset="0" style="stop-color:#D8C661"/>
				<stop  offset="1" style="stop-color:#B08831"/>
			</linearGradient>
			<path fill="url(#SVGID_3_)" d="M294.828,485.528l-7.78,13.389v44.984h-25.177V397.445h25.177v63.395h0.458l32.499-63.395h25.177
				l-35.019,65.278l35.019,81.179h-25.862L294.828,485.528z"/>
			<linearGradient id="SVGID_4_" gradientUnits="userSpaceOnUse" x1="75.7949" y1="470.6724" x2="863.3555" y2="470.6724">
				<stop  offset="0" style="stop-color:#D8C661"/>
				<stop  offset="1" style="stop-color:#B08831"/>
			</linearGradient>
			<path fill="url(#SVGID_4_)" d="M381.8,459.166h34.561v20.921H381.8v42.891h43.487v20.924h-68.663V397.445h68.663v20.922H381.8
				V459.166z"/>
			<linearGradient id="SVGID_5_" gradientUnits="userSpaceOnUse" x1="75.7949" y1="470.6724" x2="863.3555" y2="470.6724">
				<stop  offset="0" style="stop-color:#D8C661"/>
				<stop  offset="1" style="stop-color:#B08831"/>
			</linearGradient>
			<path fill="url(#SVGID_5_)" d="M433.527,397.445h77.816v20.922h-26.321v125.534h-25.177V418.367h-26.318V397.445z"/>
			<linearGradient id="SVGID_6_" gradientUnits="userSpaceOnUse" x1="75.7949" y1="470.6724" x2="863.3555" y2="470.6724">
				<stop  offset="0" style="stop-color:#D8C661"/>
				<stop  offset="1" style="stop-color:#B08831"/>
			</linearGradient>
			<path fill="url(#SVGID_6_)" d="M595.113,543.901h-25.406l-4.349-26.57H534.46l-4.349,26.57h-23.115l25.632-146.457h36.851
				L595.113,543.901z M537.666,497.452h24.26l-11.902-74.063h-0.458L537.666,497.452z"/>
			<linearGradient id="SVGID_7_" gradientUnits="userSpaceOnUse" x1="75.7949" y1="470.6724" x2="863.3555" y2="470.6724">
				<stop  offset="0" style="stop-color:#D8C661"/>
				<stop  offset="1" style="stop-color:#B08831"/>
			</linearGradient>
			<path fill="url(#SVGID_7_)" d="M659.427,543.901c-1.374-3.766-2.288-6.068-2.288-17.992v-23.016
				c0-13.6-5.035-18.621-16.479-18.621h-8.697v59.629h-25.177V397.445h37.994c26.092,0,37.307,11.089,37.307,33.685v11.507
				c0,15.064-5.264,24.688-16.479,29.499v0.42c12.588,4.813,16.707,15.691,16.707,30.965v22.596c0,7.115,0.231,12.346,2.747,17.785
				H659.427z M631.962,418.367v44.982h9.843c9.383,0,15.105-3.765,15.105-15.482v-14.436c0-10.461-3.891-15.064-12.817-15.064
				H631.962z"/>
			<linearGradient id="SVGID_8_" gradientUnits="userSpaceOnUse" x1="75.7949" y1="470.6724" x2="863.3555" y2="470.6724">
				<stop  offset="0" style="stop-color:#D8C661"/>
				<stop  offset="1" style="stop-color:#B08831"/>
			</linearGradient>
			<path fill="url(#SVGID_8_)" d="M698.793,397.445h39.826c25.174,0,37.532,12.763,37.532,36.196v74.065
				c0,23.432-12.358,36.195-37.532,36.195h-39.826V397.445z M723.972,418.367v104.61h14.189c8.01,0,12.816-3.766,12.816-14.227
				v-76.157c0-10.461-4.807-14.227-12.816-14.227H723.972z"/>
			<linearGradient id="SVGID_9_" gradientUnits="userSpaceOnUse" x1="75.7949" y1="470.6724" x2="863.3555" y2="470.6724">
				<stop  offset="0" style="stop-color:#D8C661"/>
				<stop  offset="1" style="stop-color:#B08831"/>
			</linearGradient>
			<path fill="url(#SVGID_9_)" d="M826.047,395.771c24.49,0,37.079,13.391,37.079,36.823v4.603h-23.805v-6.067
				c0-10.461-4.577-14.437-12.587-14.437s-12.59,3.975-12.59,14.437c0,10.67,5.035,18.621,21.515,31.802
				c21.058,16.946,27.696,29.083,27.696,45.819c0,23.436-12.818,36.822-37.537,36.822s-37.535-13.387-37.535-36.822v-8.996h23.801
				v10.461c0,10.461,5.037,14.229,13.047,14.229c8.013,0,13.046-3.768,13.046-14.229c0-10.67-5.033-18.619-21.514-31.803
				c-21.055-16.946-27.695-29.081-27.695-45.819C788.968,409.162,801.558,395.771,826.047,395.771z"/>
		</g>
	</g>
	<g>
		<g>
			
				<linearGradient id="SVGID_10_" gradientUnits="userSpaceOnUse" x1="336.5938" y1="760.4932" x2="618.7285" y2="760.4932" gradientTransform="matrix(1 0 0 1 -8.0859 0)">
				<stop  offset="0" style="stop-color:#D8C661"/>
				<stop  offset="1" style="stop-color:#B08831"/>
			</linearGradient>
			<path fill="url(#SVGID_10_)" d="M344.322,752.045v1.117c0,3.22-1.057,5.229-3.413,6.258v0.09c2.837,1.027,3.942,3.353,3.942,6.66
				v2.546c0,4.828-2.74,7.419-8.027,7.419h-8.316v-31.284h7.979C341.967,744.851,344.322,747.219,344.322,752.045z M333.796,749.319
				v8.269h2.066c1.971,0,3.173-0.805,3.173-3.308v-1.742c0-2.233-0.818-3.219-2.692-3.219H333.796z M333.796,762.057v9.61h3.028
				c1.778,0,2.739-0.762,2.739-3.084v-2.728c0-2.903-1.009-3.799-3.412-3.799H333.796z"/>
			
				<linearGradient id="SVGID_11_" gradientUnits="userSpaceOnUse" x1="336.5938" y1="760.4932" x2="618.7285" y2="760.4932" gradientTransform="matrix(1 0 0 1 -8.0859 0)">
				<stop  offset="0" style="stop-color:#D8C661"/>
				<stop  offset="1" style="stop-color:#B08831"/>
			</linearGradient>
			<path fill="url(#SVGID_11_)" d="M365.135,776.135h-5.337l-0.913-5.675h-6.49l-0.912,5.675h-4.855l5.384-31.284h7.739
				L365.135,776.135z M353.068,766.213h5.096l-2.5-15.82h-0.096L353.068,766.213z"/>
			
				<linearGradient id="SVGID_12_" gradientUnits="userSpaceOnUse" x1="336.5938" y1="760.4932" x2="618.7285" y2="760.4932" gradientTransform="matrix(1 0 0 1 -8.0859 0)">
				<stop  offset="0" style="stop-color:#D8C661"/>
				<stop  offset="1" style="stop-color:#B08831"/>
			</linearGradient>
			<path fill="url(#SVGID_12_)" d="M374.506,763.666l-1.635,2.859v9.609h-5.289v-31.284h5.289v13.541h0.097l6.825-13.541h5.287
				l-7.354,13.943l7.354,17.341h-5.432L374.506,763.666z"/>
			
				<linearGradient id="SVGID_13_" gradientUnits="userSpaceOnUse" x1="336.5938" y1="760.4932" x2="618.7285" y2="760.4932" gradientTransform="matrix(1 0 0 1 -8.0859 0)">
				<stop  offset="0" style="stop-color:#D8C661"/>
				<stop  offset="1" style="stop-color:#B08831"/>
			</linearGradient>
			<path fill="url(#SVGID_13_)" d="M392.768,758.033h7.26v4.471h-7.26v9.163h9.135v4.468h-14.42v-31.284h14.42v4.469h-9.135V758.033
				z"/>
			
				<linearGradient id="SVGID_14_" gradientUnits="userSpaceOnUse" x1="336.5938" y1="760.4932" x2="618.7285" y2="760.4932" gradientTransform="matrix(1 0 0 1 -8.0859 0)">
				<stop  offset="0" style="stop-color:#D8C661"/>
				<stop  offset="1" style="stop-color:#B08831"/>
			</linearGradient>
			<path fill="url(#SVGID_14_)" d="M416.224,776.135c-0.287-0.803-0.481-1.297-0.481-3.842v-4.918c0-2.903-1.057-3.977-3.459-3.977
				h-1.828v12.736h-5.287v-31.284h7.979c5.479,0,7.836,2.368,7.836,7.194v2.459c0,3.218-1.106,5.273-3.462,6.301v0.09
				c2.645,1.028,3.51,3.352,3.51,6.615v4.826c0,1.521,0.047,2.639,0.576,3.799H416.224z M410.455,749.319v9.609h2.066
				c1.973,0,3.174-0.805,3.174-3.308v-3.083c0-2.233-0.818-3.219-2.691-3.219H410.455z"/>
			
				<linearGradient id="SVGID_15_" gradientUnits="userSpaceOnUse" x1="336.5938" y1="760.4932" x2="618.7285" y2="760.4932" gradientTransform="matrix(1 0 0 1 -8.0859 0)">
				<stop  offset="0" style="stop-color:#D8C661"/>
				<stop  offset="1" style="stop-color:#B08831"/>
			</linearGradient>
			<path fill="url(#SVGID_15_)" d="M428.96,765.767l-6.683-20.916h5.528l3.991,14.256h0.096l3.989-14.256h5.048l-6.682,20.916
				v10.368h-5.288V765.767z"/>
			
				<linearGradient id="SVGID_16_" gradientUnits="userSpaceOnUse" x1="336.5938" y1="760.4932" x2="618.7285" y2="760.4932" gradientTransform="matrix(1 0 0 1 -8.0859 0)">
				<stop  offset="0" style="stop-color:#D8C661"/>
				<stop  offset="1" style="stop-color:#B08831"/>
			</linearGradient>
			<path fill="url(#SVGID_16_)" d="M488.464,741.945h4.327v37.096h-4.327V741.945z"/>
			
				<linearGradient id="SVGID_17_" gradientUnits="userSpaceOnUse" x1="336.5938" y1="760.4932" x2="618.7285" y2="760.4932" gradientTransform="matrix(1 0 0 1 -8.0859 0)">
				<stop  offset="0" style="stop-color:#D8C661"/>
				<stop  offset="1" style="stop-color:#B08831"/>
			</linearGradient>
			<path fill="url(#SVGID_17_)" d="M556.909,764.472v4.155c0,5.006-2.693,7.867-7.884,7.867c-5.192,0-7.883-2.861-7.883-7.867
				v-16.268c0-5.005,2.69-7.867,7.883-7.867c5.19,0,7.884,2.862,7.884,7.867v3.038h-4.999v-3.353c0-2.235-1.059-3.084-2.742-3.084
				c-1.681,0-2.739,0.849-2.739,3.084v16.896c0,2.235,1.059,3.039,2.739,3.039c1.684,0,2.742-0.804,2.742-3.039v-4.469H556.909z"/>
			
				<linearGradient id="SVGID_18_" gradientUnits="userSpaceOnUse" x1="336.5938" y1="760.4932" x2="618.7285" y2="760.4932" gradientTransform="matrix(1 0 0 1 -8.0859 0)">
				<stop  offset="0" style="stop-color:#D8C661"/>
				<stop  offset="1" style="stop-color:#B08831"/>
			</linearGradient>
			<path fill="url(#SVGID_18_)" d="M577.238,776.135h-5.336l-0.913-5.675H564.5l-0.912,5.675h-4.855l5.384-31.284h7.739
				L577.238,776.135z M565.174,766.213h5.095l-2.501-15.82h-0.096L565.174,766.213z"/>
			
				<linearGradient id="SVGID_19_" gradientUnits="userSpaceOnUse" x1="336.5938" y1="760.4932" x2="618.7285" y2="760.4932" gradientTransform="matrix(1 0 0 1 -8.0859 0)">
				<stop  offset="0" style="stop-color:#D8C661"/>
				<stop  offset="1" style="stop-color:#B08831"/>
			</linearGradient>
			<path fill="url(#SVGID_19_)" d="M584.975,758.749h6.827v4.47h-6.827v12.916h-5.286v-31.284h13.989v4.469h-8.703V758.749z"/>
			
				<linearGradient id="SVGID_20_" gradientUnits="userSpaceOnUse" x1="336.5938" y1="760.4932" x2="618.7285" y2="760.4932" gradientTransform="matrix(1 0 0 1 -8.0859 0)">
				<stop  offset="0" style="stop-color:#D8C661"/>
				<stop  offset="1" style="stop-color:#B08831"/>
			</linearGradient>
			<path fill="url(#SVGID_20_)" d="M601.51,758.033h7.258v4.471h-7.258v9.163h9.133v4.468h-14.421v-31.284h14.421v4.469h-9.133
				V758.033z"/>
		</g>
	</g>
</g>
<g id="Layer_4">
	<g>
		<path fill="#B18932" d="M880.032,387.646c0,0.205-0.012,0.382-0.033,0.533s-0.057,0.272-0.104,0.363
			c-0.049,0.092-0.108,0.159-0.178,0.202c-0.07,0.043-0.148,0.064-0.234,0.064h-5.882v18.129c0,0.086-0.021,0.162-0.064,0.226
			c-0.043,0.065-0.118,0.116-0.227,0.154c-0.107,0.038-0.25,0.07-0.428,0.097s-0.4,0.041-0.67,0.041c-0.26,0-0.48-0.014-0.663-0.041
			s-0.329-0.059-0.437-0.097s-0.183-0.089-0.227-0.154c-0.043-0.064-0.064-0.14-0.064-0.226v-18.129h-5.881
			c-0.086,0-0.164-0.021-0.234-0.064s-0.127-0.11-0.17-0.202c-0.043-0.091-0.078-0.212-0.104-0.363s-0.04-0.329-0.04-0.533
			s0.014-0.385,0.04-0.542s0.062-0.283,0.104-0.379c0.043-0.097,0.1-0.167,0.17-0.21c0.07-0.043,0.148-0.064,0.234-0.064h14.542
			c0.086,0,0.164,0.021,0.234,0.064c0.069,0.043,0.129,0.113,0.178,0.21c0.048,0.097,0.083,0.223,0.104,0.379
			S880.032,387.441,880.032,387.646z"/>
		<path fill="#B18932" d="M905.786,406.938c0,0.086-0.021,0.162-0.066,0.226c-0.045,0.065-0.121,0.116-0.232,0.154
			s-0.252,0.07-0.424,0.097s-0.397,0.041-0.675,0.041c-0.255,0-0.474-0.014-0.657-0.041s-0.326-0.059-0.432-0.097
			c-0.107-0.038-0.182-0.089-0.226-0.154c-0.044-0.064-0.066-0.14-0.066-0.226v-18.209h-0.032l-7.368,18.29
			c-0.032,0.076-0.078,0.14-0.138,0.194c-0.059,0.054-0.145,0.1-0.258,0.137s-0.248,0.064-0.404,0.081s-0.342,0.024-0.557,0.024
			c-0.227,0-0.421-0.011-0.582-0.032c-0.162-0.021-0.297-0.051-0.404-0.089s-0.191-0.083-0.25-0.138
			c-0.06-0.054-0.1-0.113-0.121-0.178l-7.045-18.29h-0.017v18.209c0,0.086-0.022,0.162-0.066,0.226
			c-0.044,0.065-0.122,0.116-0.233,0.154s-0.255,0.07-0.433,0.097c-0.177,0.027-0.405,0.041-0.683,0.041
			c-0.266,0-0.488-0.014-0.665-0.041s-0.319-0.059-0.425-0.097s-0.178-0.089-0.217-0.154c-0.038-0.064-0.057-0.14-0.057-0.226
			V387.71c0-0.452,0.119-0.775,0.36-0.969s0.509-0.291,0.804-0.291h1.707c0.35,0,0.656,0.032,0.918,0.097
			c0.263,0.064,0.492,0.167,0.689,0.307s0.361,0.318,0.492,0.533s0.246,0.469,0.345,0.76l5.978,15.14h0.082l6.221-15.091
			c0.119-0.323,0.25-0.598,0.394-0.824c0.142-0.226,0.298-0.407,0.468-0.541c0.17-0.135,0.358-0.232,0.566-0.291
			c0.207-0.059,0.449-0.089,0.723-0.089h1.789c0.164,0,0.32,0.024,0.467,0.073c0.148,0.048,0.274,0.124,0.379,0.226
			c0.104,0.103,0.188,0.231,0.254,0.388c0.065,0.156,0.098,0.348,0.098,0.574V406.938z"/>
	</g>
</g>
</svg>
